<svg width="533" height="847" viewBox="0 0 533 847" fill="none" xmlns="http://www.w3.org/2000/svg">
<g clip-path="url(#clip0_866_9102)">
<path fill-rule="evenodd" clip-rule="evenodd" d="M164.943 6.34678e-06C159.289 6.52347e-06 153.866 2.24621 149.868 6.24448L6.24448 149.868C2.24621 153.866 1.40861e-07 159.289 1.37046e-07 164.943L0 368.057C-3.81518e-09 373.711 2.2462 379.134 6.24448 383.132L149.868 526.756C153.866 530.754 159.289 533 164.943 533H239.85V1005.37H273.162H293.15V533H368.057C373.711 533 379.134 530.754 383.132 526.756L526.756 383.132C530.754 379.134 533 373.711 533 368.057V164.943C533 159.289 530.754 153.866 526.756 149.868L383.132 6.24448C379.134 2.24621 373.711 -1.76686e-07 368.057 0L164.943 6.34678e-06ZM293.15 516.344H361.158C366.812 516.344 372.235 514.098 376.233 510.099L510.099 376.233C514.098 372.235 516.344 366.812 516.344 361.158V171.842C516.344 166.188 514.098 160.765 510.099 156.767L376.233 22.9007C372.235 18.9025 366.812 16.6562 361.158 16.6562L171.842 16.6563C166.188 16.6563 160.765 18.9025 156.767 22.9007L22.9007 156.767C18.9025 160.765 16.6562 166.188 16.6562 171.842V361.158C16.6562 366.812 18.9025 372.235 22.9007 376.233L156.767 510.099C160.765 514.098 166.188 516.344 171.842 516.344H239.85H273.162H293.15ZM293.15 499.687H273.162H239.85H178.742C173.087 499.687 167.664 497.441 163.666 493.443L39.557 369.334C35.5587 365.336 33.3125 359.913 33.3125 354.258V178.742C33.3125 173.087 35.5587 167.664 39.557 163.666L163.666 39.557C167.664 35.5587 173.087 33.3125 178.742 33.3125L354.258 33.3125C359.913 33.3125 365.336 35.5587 369.334 39.557L493.443 163.666C497.441 167.664 499.687 173.087 499.687 178.742V354.258C499.687 359.913 497.441 365.336 493.443 369.334L369.334 493.443C365.336 497.441 359.913 499.687 354.258 499.687H293.15ZM208.58 339.639L193.691 336.102L188.783 356.764L160.039 349.935L165.23 329.341L104.846 314.996L110.418 291.539L180.489 223.313L190.212 225.623L201.333 228.265L218.349 232.307L199.321 312.402L214.21 315.939L208.58 339.639ZM181.675 257.236L182.664 257.47L171.226 305.728L140.375 298.398L140.606 297.426L181.675 257.236ZM257.486 342.069C265.268 347.164 274.534 349.711 285.284 349.711C296.075 349.711 305.341 347.184 313.083 342.13C320.864 337.035 326.861 329.675 331.073 320.048C335.285 310.42 337.391 298.828 337.391 285.27C337.431 271.792 335.345 260.319 331.133 250.853C326.921 241.386 320.905 234.186 313.083 229.252C305.301 224.278 296.035 221.791 285.284 221.791C274.534 221.791 265.268 224.278 257.486 229.252C249.744 234.186 243.767 241.386 239.556 250.853C235.384 260.279 233.278 271.752 233.238 285.27C233.198 298.788 235.284 310.36 239.495 319.987C243.707 329.574 249.704 336.935 257.486 342.069ZM285.284 325.342C291.702 325.342 296.897 322.073 300.868 315.535C304.839 308.956 306.805 298.868 306.765 285.27C306.765 276.365 305.862 269.024 304.057 263.248C302.252 257.431 299.745 253.099 296.536 250.251C293.327 247.403 289.576 245.979 285.284 245.979C278.906 245.979 273.752 249.208 269.821 255.666C265.89 262.084 263.904 271.952 263.864 285.27C263.824 294.295 264.686 301.776 266.451 307.713C268.256 313.649 270.783 318.082 274.033 321.01C277.282 323.898 281.032 325.342 285.284 325.342ZM394.905 215.745L432.777 337.93L403.304 347.065L373.976 252.443L373.26 252.665L351.113 277.84L343.198 252.305L367.52 224.233L394.905 215.745ZM249.906 153.821L259.775 171.892H248.918L240.107 155.403H232.928V171.892H223.093V125.376H241.446C244.959 125.376 247.957 126.005 250.44 127.261C252.938 128.503 254.839 130.267 256.141 132.553C257.458 134.825 258.117 137.497 258.117 140.571C258.117 143.66 257.451 146.318 256.118 148.543C254.786 150.754 252.855 152.45 250.326 153.631C250.188 153.696 250.048 153.76 249.906 153.821ZM232.928 147.499H239.606C241.483 147.499 243.043 147.241 244.285 146.726C245.526 146.212 246.45 145.439 247.056 144.41C247.677 143.38 247.987 142.101 247.987 140.571C247.987 139.027 247.677 137.724 247.056 136.665C246.45 135.605 245.519 134.802 244.262 134.257C243.02 133.697 241.453 133.417 239.56 133.417H232.928V147.499ZM265.067 125.376V171.892H274.902V155.403H282.081L290.892 171.892H301.749L291.879 153.821C292.021 153.76 292.161 153.696 292.3 153.631C294.829 152.45 296.759 150.754 298.092 148.543C299.424 146.318 300.091 143.66 300.091 140.571C300.091 137.497 299.432 134.825 298.115 132.553C296.812 130.267 294.912 128.503 292.414 127.261C289.93 126.005 286.932 125.376 283.419 125.376H265.067ZM281.58 147.499H274.902V133.417H281.534C283.427 133.417 284.994 133.697 286.236 134.257C287.493 134.802 288.424 135.605 289.029 136.665C289.65 137.724 289.961 139.027 289.961 140.571C289.961 142.101 289.65 143.38 289.029 144.41C288.424 145.439 287.5 146.212 286.258 146.726C285.017 147.241 283.457 147.499 281.58 147.499ZM150.697 409.77L148.972 415.074H143.703L151.732 391.816H158.069L166.086 415.074H160.817L159.095 409.77H150.697ZM157.849 405.932L154.991 397.13H154.809L151.946 405.932H157.849ZM148.961 389.487L151.641 389.522C151.641 388.992 151.762 388.571 152.004 388.261C152.247 387.951 152.565 387.795 152.958 387.795C153.299 387.795 153.606 387.882 153.878 388.057C154.151 388.231 154.431 388.431 154.719 388.658C155.006 388.878 155.339 389.075 155.718 389.249C156.104 389.423 156.577 389.506 157.138 389.499C158.167 389.491 159.038 389.101 159.75 388.329C160.461 387.549 160.825 386.444 160.84 385.013L158.194 384.933C158.194 385.456 158.076 385.88 157.842 386.205C157.614 386.523 157.281 386.686 156.842 386.694C156.517 386.694 156.214 386.61 155.934 386.444C155.654 386.27 155.358 386.069 155.048 385.842C154.738 385.615 154.393 385.418 154.014 385.251C153.636 385.077 153.182 384.99 152.652 384.99C151.614 384.998 150.74 385.388 150.028 386.16C149.317 386.932 148.961 388.041 148.961 389.487ZM205.944 409.77H214.342L216.064 415.074H221.333L213.315 391.816H206.979L198.949 415.074H204.219L205.944 409.77ZM207.193 405.932H213.095L210.238 397.13H210.056L207.193 405.932ZM301.284 406.829H297.694V415.074H292.777V391.816H301.953C303.71 391.816 305.209 392.13 306.45 392.758C307.7 393.379 308.65 394.261 309.301 395.404C309.96 396.54 310.289 397.876 310.289 399.413C310.289 400.958 309.956 402.286 309.29 403.399C308.623 404.505 307.658 405.353 306.394 405.943L306.361 405.958C306.348 405.964 306.335 405.97 306.322 405.976C306.276 405.997 306.23 406.018 306.183 406.038L311.118 415.074H305.689L301.284 406.829ZM297.694 395.836V402.877H301.033C301.972 402.877 302.752 402.748 303.373 402.491C303.994 402.233 304.455 401.847 304.758 401.332C305.069 400.818 305.224 400.178 305.224 399.413C305.224 398.641 305.069 397.99 304.758 397.46C304.455 396.93 303.99 396.529 303.361 396.256C302.741 395.976 301.957 395.836 301.011 395.836H297.694ZM349.792 409.77H358.189L359.911 415.074H365.181L357.163 391.816H350.826L342.797 415.074H348.066L349.792 409.77ZM351.04 405.932H356.943L354.085 397.13H353.904L351.04 405.932ZM183.93 125.376V171.892H215.365V163.784H193.765V152.677H213.662V144.569H193.765V133.485H215.274V125.376H183.93ZM349.787 148.634C349.787 153.707 348.825 158.022 346.902 161.581C344.994 165.139 342.39 167.857 339.089 169.735C335.803 171.597 332.109 172.528 328.005 172.528C323.871 172.528 320.162 171.59 316.876 169.712C313.59 167.834 310.993 165.116 309.085 161.558C307.177 158 306.223 153.692 306.223 148.634C306.223 143.562 307.177 139.246 309.085 135.688C310.993 132.129 313.59 129.419 316.876 127.557C320.162 125.679 323.871 124.74 328.005 124.74C332.109 124.74 335.803 125.679 339.089 127.557C342.39 129.419 344.994 132.129 346.902 135.688C348.825 139.246 349.787 143.562 349.787 148.634ZM338.34 140.321C339.324 142.577 339.816 145.348 339.816 148.634C339.816 151.92 339.324 154.691 338.34 156.947C337.37 159.203 336 160.915 334.228 162.08C332.457 163.246 330.382 163.829 328.005 163.829C325.628 163.829 323.553 163.246 321.782 162.08C320.01 160.915 318.632 159.203 317.648 156.947C316.679 154.691 316.194 151.92 316.194 148.634C316.194 145.348 316.679 142.577 317.648 140.321C318.632 138.065 320.01 136.354 321.782 135.188C323.553 134.022 325.628 133.439 328.005 133.439C330.382 133.439 332.457 134.022 334.228 135.188C336 136.354 337.37 138.065 338.34 140.321ZM140.901 415.074V391.816H136.006V406.443H135.801L125.762 391.816H121.447V415.074H126.364V400.435H126.535L136.653 415.074H140.901ZM189.166 403.445C189.166 405.981 188.685 408.139 187.723 409.918C186.77 411.697 185.467 413.056 183.817 413.995C182.174 414.926 180.327 415.392 178.275 415.392C176.208 415.392 174.353 414.922 172.71 413.984C171.067 413.045 169.769 411.686 168.815 409.907C167.861 408.127 167.384 405.973 167.384 403.445C167.384 400.908 167.861 398.751 168.815 396.971C169.769 395.192 171.067 393.837 172.71 392.906C174.353 391.967 176.208 391.498 178.275 391.498C180.327 391.498 182.174 391.967 183.817 392.906C185.467 393.837 186.77 395.192 187.723 396.971C188.685 398.751 189.166 400.908 189.166 403.445ZM183.442 399.288C183.934 400.416 184.18 401.802 184.18 403.445C184.18 405.088 183.934 406.473 183.442 407.601C182.958 408.729 182.272 409.585 181.387 410.168C180.501 410.751 179.464 411.042 178.275 411.042C177.086 411.042 176.049 410.751 175.163 410.168C174.277 409.585 173.588 408.729 173.096 407.601C172.612 406.473 172.369 405.088 172.369 403.445C172.369 401.802 172.612 400.416 173.096 399.288C173.588 398.16 174.277 397.305 175.163 396.722C176.049 396.139 177.086 395.847 178.275 395.847C179.464 395.847 180.501 396.139 181.387 396.722C182.272 397.305 182.958 398.16 183.442 399.288ZM243.416 391.816H238.499V406.5C238.499 407.385 238.302 408.173 237.908 408.862C237.522 409.551 236.973 410.092 236.261 410.486C235.557 410.879 234.728 411.076 233.774 411.076C232.828 411.076 231.999 410.879 231.287 410.486C230.575 410.092 230.023 409.551 229.629 408.862C229.243 408.173 229.05 407.385 229.05 406.5V391.816H224.133V406.92C224.133 408.616 224.534 410.1 225.336 411.372C226.139 412.643 227.263 413.635 228.709 414.347C230.155 415.051 231.844 415.403 233.774 415.403C235.697 415.403 237.382 415.051 238.828 414.347C240.274 413.635 241.398 412.643 242.201 411.372C243.011 410.1 243.416 408.616 243.416 406.92V391.816ZM246.576 395.87V391.816H265.678V395.87H258.557V415.074H253.696V395.87H246.576ZM287.692 409.918C288.654 408.139 289.135 405.981 289.135 403.445C289.135 400.908 288.654 398.751 287.692 396.971C286.738 395.192 285.436 393.837 283.786 392.906C282.143 391.967 280.295 391.498 278.244 391.498C276.177 391.498 274.322 391.967 272.679 392.906C271.036 393.837 269.738 395.192 268.784 396.971C267.83 398.751 267.353 400.908 267.353 403.445C267.353 405.973 267.83 408.127 268.784 409.907C269.738 411.686 271.036 413.045 272.679 413.984C274.322 414.922 276.177 415.392 278.244 415.392C280.295 415.392 282.143 414.926 283.786 413.995C285.436 413.056 286.738 411.697 287.692 409.918ZM284.149 403.445C284.149 401.802 283.903 400.416 283.411 399.288C282.926 398.16 282.241 397.305 281.355 396.722C280.469 396.139 279.432 395.847 278.244 395.847C277.055 395.847 276.018 396.139 275.132 396.722C274.246 397.305 273.557 398.16 273.065 399.288C272.58 400.416 272.338 401.802 272.338 403.445C272.338 405.088 272.58 406.473 273.065 407.601C273.557 408.729 274.246 409.585 275.132 410.168C276.018 410.751 277.055 411.042 278.244 411.042C279.432 411.042 280.469 410.751 281.355 410.168C282.241 409.585 282.926 408.729 283.411 407.601C283.903 406.473 284.149 405.088 284.149 403.445ZM318.681 391.816V415.074H313.764V391.816H318.681ZM322.477 412.155V415.074H340.284V411.019H328.644L340.262 394.734V391.816H322.455V395.87H334.084L322.477 412.155ZM376.225 415.074H367.98V391.816H376.293C378.633 391.816 380.646 392.281 382.335 393.212C384.023 394.136 385.322 395.465 386.23 397.199C387.146 398.932 387.604 401.007 387.604 403.422C387.604 405.845 387.146 407.927 386.23 409.668C385.322 411.409 384.016 412.746 382.312 413.677C380.616 414.608 378.587 415.074 376.225 415.074ZM376.021 410.86H372.897V396.029H376.032C377.486 396.029 378.708 396.286 379.7 396.801C380.692 397.316 381.438 398.118 381.937 399.209C382.445 400.299 382.698 401.703 382.698 403.422C382.698 405.156 382.445 406.571 381.937 407.669C381.438 408.76 380.688 409.566 379.689 410.088C378.697 410.603 377.474 410.86 376.021 410.86ZM411.177 409.918C412.139 408.139 412.62 405.981 412.62 403.445C412.62 400.908 412.139 398.751 411.177 396.971C410.224 395.192 408.921 393.837 407.271 392.906C405.628 391.967 403.781 391.498 401.729 391.498C399.662 391.498 397.807 391.967 396.164 392.906C394.521 393.837 393.223 395.192 392.269 396.971C391.315 398.751 390.838 400.908 390.838 403.445C390.838 405.973 391.315 408.127 392.269 409.907C393.223 411.686 394.521 413.045 396.164 413.984C397.807 414.922 399.662 415.392 401.729 415.392C403.781 415.392 405.628 414.926 407.271 413.995C408.921 413.056 410.224 411.697 411.177 409.918ZM407.634 403.445C407.634 401.802 407.388 400.416 406.896 399.288C406.412 398.16 405.726 397.305 404.841 396.722C403.955 396.139 402.918 395.847 401.729 395.847C400.54 395.847 399.503 396.139 398.617 396.722C397.731 397.305 397.042 398.16 396.55 399.288C396.066 400.416 395.823 401.802 395.823 403.445C395.823 405.088 396.066 406.473 396.55 407.601C397.042 408.729 397.731 409.585 398.617 410.168C399.503 410.751 400.54 411.042 401.729 411.042C402.918 411.042 403.955 410.751 404.841 410.168C405.726 409.585 406.412 408.729 406.896 407.601C407.388 406.473 407.634 405.088 407.634 403.445Z" fill="white"/>
<path d="M110.418 291.539L104.846 314.996L165.23 329.341L171.226 305.728L140.375 298.398L140.606 297.426L181.675 257.236L182.664 257.47L190.212 225.623L180.489 223.313L110.418 291.539Z" fill="white"/>
<path d="M201.333 228.265L193.768 260.108L182.664 257.47L171.226 305.728L199.321 312.402L218.349 232.307L201.333 228.265Z" fill="white"/>
<path d="M201.333 228.265L190.212 225.623L182.664 257.47L193.768 260.108L201.333 228.265Z" fill="white"/>
<path d="M171.226 305.728L165.23 329.341L193.691 336.102L199.321 312.402L171.226 305.728Z" fill="white"/>
<path d="M165.23 329.341L160.039 349.935L188.783 356.764L193.691 336.102L165.23 329.341Z" fill="white"/>
<path d="M208.58 339.639L214.21 315.939L199.321 312.402L193.691 336.102L208.58 339.639Z" fill="white"/>
<path fill-rule="evenodd" clip-rule="evenodd" d="M285.284 349.711C274.534 349.711 265.268 347.164 257.486 342.069C249.704 336.935 243.707 329.574 239.495 319.987C235.284 310.36 233.198 298.788 233.238 285.27C233.278 271.752 235.384 260.279 239.556 250.853C243.767 241.386 249.744 234.186 257.486 229.252C265.268 224.278 274.534 221.791 285.284 221.791C296.035 221.791 305.301 224.278 313.083 229.252C320.905 234.186 326.921 241.386 331.133 250.853C335.345 260.319 337.431 271.792 337.391 285.27C337.391 298.828 335.285 310.42 331.073 320.048C326.861 329.675 320.864 337.035 313.083 342.13C305.341 347.184 296.075 349.711 285.284 349.711ZM300.868 315.535C296.897 322.073 291.702 325.342 285.284 325.342C281.032 325.342 277.282 323.898 274.033 321.01C270.783 318.082 268.256 313.649 266.451 307.713C264.686 301.776 263.824 294.295 263.864 285.27C263.904 271.952 265.89 262.084 269.821 255.666C273.752 249.208 278.906 245.979 285.284 245.979C289.576 245.979 293.327 247.403 296.536 250.251C299.745 253.099 302.252 257.431 304.057 263.248C305.862 269.024 306.765 276.365 306.765 285.27C306.805 298.868 304.839 308.956 300.868 315.535Z" fill="white"/>
<path d="M394.905 215.745L432.777 337.93L403.304 347.065L373.976 252.443L373.26 252.665L351.113 277.84L343.198 252.305L367.52 224.233L394.905 215.745Z" fill="white"/>
<path fill-rule="evenodd" clip-rule="evenodd" d="M349.787 148.634C349.787 153.707 348.825 158.022 346.902 161.581C344.994 165.139 342.39 167.857 339.089 169.735C335.803 171.597 332.109 172.528 328.005 172.528C323.871 172.528 320.162 171.59 316.876 169.712C313.59 167.834 310.993 165.116 309.085 161.558C307.177 158 306.223 153.692 306.223 148.634C306.223 143.562 307.177 139.246 309.085 135.688C310.993 132.129 313.59 129.419 316.876 127.557C320.162 125.679 323.871 124.74 328.005 124.74C332.109 124.74 335.803 125.679 339.089 127.557C342.39 129.419 344.994 132.129 346.902 135.688C348.825 139.246 349.787 143.562 349.787 148.634ZM338.34 140.321C339.324 142.577 339.816 145.348 339.816 148.634C339.816 151.92 339.324 154.691 338.34 156.947C337.37 159.203 336 160.915 334.228 162.08C332.457 163.246 330.382 163.829 328.005 163.829C325.628 163.829 323.553 163.246 321.782 162.08C320.01 160.915 318.632 159.203 317.648 156.947C316.679 154.691 316.194 151.92 316.194 148.634C316.194 145.348 316.679 142.577 317.648 140.321C318.632 138.065 320.01 136.354 321.782 135.188C323.553 134.022 325.628 133.439 328.005 133.439C330.382 133.439 332.457 134.022 334.228 135.188C336 136.354 337.37 138.065 338.34 140.321Z" fill="white"/>
<path d="M290.892 171.892H301.749L291.879 153.821C289.449 154.876 286.546 155.403 283.17 155.403H282.081L290.892 171.892Z" fill="white"/>
<path d="M265.067 125.376V171.892H274.902V155.403H270.882V147.499H274.902V133.417H281.534C283.427 133.417 284.994 133.697 286.236 134.257C287.493 134.802 288.424 135.605 289.029 136.665C289.65 137.724 289.961 139.027 289.961 140.571C289.961 142.101 289.65 143.38 289.029 144.41C288.424 145.439 287.5 146.212 286.258 146.726C285.017 147.241 283.457 147.499 281.58 147.499H274.902V155.403H282.081L279.581 150.724H290.188L291.879 153.821C292.021 153.76 292.161 153.696 292.3 153.631C294.829 152.45 296.759 150.754 298.092 148.543C299.424 146.318 300.091 143.66 300.091 140.571C300.091 137.497 299.432 134.825 298.115 132.553C296.812 130.267 294.912 128.503 292.414 127.261C289.93 126.005 286.932 125.376 283.419 125.376H265.067Z" fill="white"/>
<path d="M290.188 150.724H279.581L282.081 155.403H283.17C286.546 155.403 289.449 154.876 291.879 153.821L290.188 150.724Z" fill="white"/>
<path d="M270.882 147.499V155.403H274.902V147.499H270.882Z" fill="white"/>
<path d="M223.093 125.376V171.892H232.928V155.403H228.908V147.499H232.928V133.417H239.56C241.453 133.417 243.02 133.697 244.262 134.257C245.519 134.802 246.45 135.605 247.056 136.665C247.677 137.724 247.987 139.027 247.987 140.571C247.987 142.101 247.677 143.38 247.056 144.41C246.45 145.439 245.526 146.212 244.285 146.726C243.043 147.241 241.483 147.499 239.606 147.499H232.928V155.403H240.107L237.607 150.724H248.214L249.906 153.821C250.048 153.76 250.188 153.696 250.326 153.631C252.855 152.45 254.786 150.754 256.118 148.543C257.451 146.318 258.117 143.66 258.117 140.571C258.117 137.497 257.458 134.825 256.141 132.553C254.839 130.267 252.938 128.503 250.44 127.261C247.957 126.005 244.959 125.376 241.446 125.376H223.093Z" fill="white"/>
<path d="M248.214 150.724H237.607L240.107 155.403H241.196C244.572 155.403 247.475 154.876 249.906 153.821L248.214 150.724Z" fill="white"/>
<path d="M248.918 171.892H259.775L249.906 153.821C247.475 154.876 244.572 155.403 241.196 155.403H240.107L248.918 171.892Z" fill="white"/>
<path d="M228.908 147.499V155.403H232.928V147.499H228.908Z" fill="white"/>
<path d="M183.93 171.892V125.376H215.274V133.485H193.765V144.569H213.662V152.677H193.765V163.784H215.365V171.892H183.93Z" fill="white"/>
<path d="M361.158 16.6562L171.842 16.6563C166.188 16.6563 160.765 18.9025 156.767 22.9007L22.9007 156.767C18.9025 160.765 16.6562 166.188 16.6562 171.842V361.158C16.6562 366.812 18.9025 372.235 22.9007 376.233L156.767 510.099C160.765 514.098 166.188 516.344 171.842 516.344H239.85V499.687H178.742C173.087 499.687 167.664 497.441 163.666 493.443L39.557 369.334C35.5587 365.336 33.3125 359.913 33.3125 354.258V178.742C33.3125 173.087 35.5587 167.664 39.557 163.666L163.666 39.557C167.664 35.5587 173.087 33.3125 178.742 33.3125L354.258 33.3125C359.913 33.3125 365.336 35.5587 369.334 39.557L493.443 163.666C497.441 167.664 499.687 173.087 499.687 178.742V354.258C499.687 359.913 497.441 365.336 493.443 369.334L369.334 493.443C365.336 497.441 359.913 499.687 354.258 499.687H293.15V516.344H361.158C366.812 516.344 372.235 514.098 376.233 510.099L510.099 376.233C514.098 372.235 516.344 366.812 516.344 361.158V171.842C516.344 166.188 514.098 160.765 510.099 156.767L376.233 22.9007C372.235 18.9025 366.812 16.6562 361.158 16.6562Z" fill="white"/>
<path d="M273.162 499.687H239.85V516.344H273.162V499.687Z" fill="white"/>
<path d="M293.15 499.687H273.162V516.344H293.15V499.687Z" fill="white"/>
<path fill-rule="evenodd" clip-rule="evenodd" d="M412.62 403.445C412.62 405.981 412.139 408.139 411.177 409.918C410.224 411.697 408.921 413.056 407.271 413.995C405.628 414.926 403.781 415.392 401.729 415.392C399.662 415.392 397.807 414.922 396.164 413.984C394.521 413.045 393.223 411.686 392.269 409.907C391.315 408.127 390.838 405.973 390.838 403.445C390.838 400.908 391.315 398.751 392.269 396.971C393.223 395.192 394.521 393.837 396.164 392.906C397.807 391.967 399.662 391.498 401.729 391.498C403.781 391.498 405.628 391.967 407.271 392.906C408.921 393.837 410.224 395.192 411.177 396.971C412.139 398.751 412.62 400.908 412.62 403.445ZM406.896 399.288C407.388 400.416 407.634 401.802 407.634 403.445C407.634 405.088 407.388 406.473 406.896 407.601C406.412 408.729 405.726 409.585 404.841 410.168C403.955 410.751 402.918 411.042 401.729 411.042C400.54 411.042 399.503 410.751 398.617 410.168C397.731 409.585 397.042 408.729 396.55 407.601C396.066 406.473 395.823 405.088 395.823 403.445C395.823 401.802 396.066 400.416 396.55 399.288C397.042 398.16 397.731 397.305 398.617 396.722C399.503 396.139 400.54 395.847 401.729 395.847C402.918 395.847 403.955 396.139 404.841 396.722C405.726 397.305 406.412 398.16 406.896 399.288Z" fill="white"/>
<path fill-rule="evenodd" clip-rule="evenodd" d="M376.225 415.074H367.98V391.816H376.293C378.633 391.816 380.646 392.281 382.335 393.212C384.023 394.136 385.322 395.465 386.23 397.199C387.146 398.932 387.604 401.007 387.604 403.422C387.604 405.845 387.146 407.927 386.23 409.668C385.322 411.409 384.016 412.746 382.312 413.677C380.616 414.608 378.587 415.074 376.225 415.074ZM376.021 410.86H372.897V396.029H376.032C377.486 396.029 378.708 396.286 379.7 396.801C380.692 397.316 381.438 398.118 381.937 399.209C382.445 400.299 382.698 401.703 382.698 403.422C382.698 405.156 382.445 406.571 381.937 407.669C381.438 408.76 380.688 409.566 379.689 410.088C378.697 410.603 377.474 410.86 376.021 410.86Z" fill="white"/>
<path d="M360.184 409.77V405.932H356.943L358.189 409.77H360.184Z" fill="white"/>
<path d="M342.797 415.074H348.066L349.792 409.77H347.737V405.932H351.04L353.904 397.13H354.085L356.943 405.932H360.184V409.77H358.189L359.911 415.074H365.181L357.163 391.816H350.826L342.797 415.074Z" fill="white"/>
<path d="M351.04 405.932L349.792 409.77H358.189L356.943 405.932H351.04Z" fill="white"/>
<path d="M347.737 405.932V409.77H349.792L351.04 405.932H347.737Z" fill="white"/>
<path d="M322.477 415.074V412.155L334.084 395.87H322.455V391.816H340.262V394.734L328.644 411.019H340.284V415.074H322.477Z" fill="white"/>
<path d="M318.681 391.816V415.074H313.764V391.816H318.681Z" fill="white"/>
<path d="M305.689 415.074H311.118L306.183 406.038C304.968 406.565 303.516 406.829 301.828 406.829H301.284L305.689 415.074Z" fill="white"/>
<path d="M305.337 404.489H300.034L301.284 406.829H301.828C303.516 406.829 304.968 406.565 306.183 406.038L305.337 404.489Z" fill="white"/>
<path d="M292.777 391.816V415.074H297.694V406.829H295.684V402.877H297.694V395.836H301.011C301.957 395.836 302.741 395.976 303.361 396.256C303.99 396.529 304.455 396.93 304.758 397.46C305.069 397.99 305.224 398.641 305.224 399.413C305.224 400.178 305.069 400.818 304.758 401.332C304.455 401.847 303.994 402.233 303.373 402.491C302.752 402.748 301.972 402.877 301.033 402.877H297.694V406.829H301.284L300.034 404.489H305.337L306.183 406.038C306.23 406.018 306.276 405.997 306.322 405.976C306.335 405.97 306.348 405.964 306.361 405.958L306.394 405.943C307.658 405.353 308.623 404.505 309.29 403.399C309.956 402.286 310.289 400.958 310.289 399.413C310.289 397.876 309.96 396.54 309.301 395.404C308.65 394.261 307.7 393.379 306.45 392.758C305.209 392.13 303.71 391.816 301.953 391.816H292.777Z" fill="white"/>
<path d="M295.684 402.877V406.829H297.694V402.877H295.684Z" fill="white"/>
<path fill-rule="evenodd" clip-rule="evenodd" d="M289.135 403.445C289.135 405.981 288.654 408.139 287.692 409.918C286.738 411.697 285.436 413.056 283.786 413.995C282.143 414.926 280.295 415.392 278.244 415.392C276.177 415.392 274.322 414.922 272.679 413.984C271.036 413.045 269.738 411.686 268.784 409.907C267.83 408.127 267.353 405.973 267.353 403.445C267.353 400.908 267.83 398.751 268.784 396.971C269.738 395.192 271.036 393.837 272.679 392.906C274.322 391.967 276.177 391.498 278.244 391.498C280.295 391.498 282.143 391.967 283.786 392.906C285.436 393.837 286.738 395.192 287.692 396.971C288.654 398.751 289.135 400.908 289.135 403.445ZM283.411 399.288C283.903 400.416 284.149 401.802 284.149 403.445C284.149 405.088 283.903 406.473 283.411 407.601C282.926 408.729 282.241 409.585 281.355 410.168C280.469 410.751 279.432 411.042 278.244 411.042C277.055 411.042 276.018 410.751 275.132 410.168C274.246 409.585 273.557 408.729 273.065 407.601C272.58 406.473 272.338 405.088 272.338 403.445C272.338 401.802 272.58 400.416 273.065 399.288C273.557 398.16 274.246 397.305 275.132 396.722C276.018 396.139 277.055 395.847 278.244 395.847C279.432 395.847 280.469 396.139 281.355 396.722C282.241 397.305 282.926 398.16 283.411 399.288Z" fill="white"/>
<path d="M246.576 395.87V391.816H265.678V395.87H258.557V415.074H253.696V395.87H246.576Z" fill="white"/>
<path d="M238.499 391.816H243.416V406.92C243.416 408.616 243.011 410.1 242.201 411.372C241.398 412.643 240.274 413.635 238.828 414.347C237.382 415.051 235.697 415.403 233.774 415.403C231.844 415.403 230.155 415.051 228.709 414.347C227.263 413.635 226.139 412.643 225.336 411.372C224.534 410.1 224.133 408.616 224.133 406.92V391.816H229.05V406.5C229.05 407.385 229.243 408.173 229.629 408.862C230.023 409.551 230.575 410.092 231.287 410.486C231.999 410.879 232.828 411.076 233.774 411.076C234.728 411.076 235.557 410.879 236.261 410.486C236.973 410.092 237.522 409.551 237.908 408.862C238.302 408.173 238.499 407.385 238.499 406.5V391.816Z" fill="white"/>
<path d="M216.336 409.77V405.932H213.095L214.342 409.77H216.336Z" fill="white"/>
<path d="M198.949 415.074H204.219L205.944 409.77H203.89V405.932H207.193L210.056 397.13H210.238L213.095 405.932H216.336V409.77H214.342L216.064 415.074H221.333L213.315 391.816H206.979L198.949 415.074Z" fill="white"/>
<path d="M207.193 405.932L205.944 409.77H214.342L213.095 405.932H207.193Z" fill="white"/>
<path d="M203.89 405.932V409.77H205.944L207.193 405.932H203.89Z" fill="white"/>
<path fill-rule="evenodd" clip-rule="evenodd" d="M189.166 403.445C189.166 405.981 188.685 408.139 187.723 409.918C186.77 411.697 185.467 413.056 183.817 413.995C182.174 414.926 180.327 415.392 178.275 415.392C176.208 415.392 174.353 414.922 172.71 413.984C171.067 413.045 169.769 411.686 168.815 409.907C167.861 408.127 167.384 405.973 167.384 403.445C167.384 400.908 167.861 398.751 168.815 396.971C169.769 395.192 171.067 393.837 172.71 392.906C174.353 391.967 176.208 391.498 178.275 391.498C180.327 391.498 182.174 391.967 183.817 392.906C185.467 393.837 186.77 395.192 187.723 396.971C188.685 398.751 189.166 400.908 189.166 403.445ZM183.442 399.288C183.934 400.416 184.18 401.802 184.18 403.445C184.18 405.088 183.934 406.473 183.442 407.601C182.958 408.729 182.272 409.585 181.387 410.168C180.501 410.751 179.464 411.042 178.275 411.042C177.086 411.042 176.049 410.751 175.163 410.168C174.277 409.585 173.588 408.729 173.096 407.601C172.612 406.473 172.369 405.088 172.369 403.445C172.369 401.802 172.612 400.416 173.096 399.288C173.588 398.16 174.277 397.305 175.163 396.722C176.049 396.139 177.086 395.847 178.275 395.847C179.464 395.847 180.501 396.139 181.387 396.722C182.272 397.305 182.958 398.16 183.442 399.288Z" fill="white"/>
<path d="M143.703 415.074H148.972L150.697 409.77H148.643V405.932H151.946L154.809 397.13H154.991L157.849 405.932H161.09V409.77H159.095L160.817 415.074H166.086L158.069 391.816H151.732L143.703 415.074Z" fill="white"/>
<path d="M161.09 409.77V405.932H157.849L159.095 409.77H161.09Z" fill="white"/>
<path d="M151.946 405.932L150.697 409.77H159.095L157.849 405.932H151.946Z" fill="white"/>
<path d="M148.643 405.932V409.77H150.697L151.946 405.932H148.643Z" fill="white"/>
<path d="M151.641 389.522L148.961 389.487C148.961 388.041 149.317 386.932 150.028 386.16C150.74 385.388 151.614 384.998 152.652 384.99C153.182 384.99 153.636 385.077 154.014 385.251C154.393 385.418 154.738 385.615 155.048 385.842C155.358 386.069 155.654 386.27 155.934 386.444C156.214 386.61 156.517 386.694 156.842 386.694C157.281 386.686 157.614 386.523 157.842 386.205C158.076 385.88 158.194 385.456 158.194 384.933L160.84 385.013C160.825 386.444 160.461 387.549 159.75 388.329C159.038 389.101 158.167 389.491 157.138 389.499C156.577 389.506 156.104 389.423 155.718 389.249C155.339 389.075 155.006 388.878 154.719 388.658C154.431 388.431 154.151 388.231 153.878 388.057C153.606 387.882 153.299 387.795 152.958 387.795C152.565 387.795 152.247 387.951 152.004 388.261C151.762 388.571 151.641 388.992 151.641 389.522Z" fill="white"/>
<path d="M140.901 391.816V415.074H136.653L126.535 400.435H126.364V415.074H121.447V391.816H125.762L135.801 406.443H136.006V391.816H140.901Z" fill="white"/>
<path fill-rule="evenodd" clip-rule="evenodd" d="M164.943 6.34678e-06C159.289 6.52347e-06 153.866 2.24621 149.868 6.24448L6.24448 149.868C2.24621 153.866 1.40861e-07 159.289 1.37046e-07 164.943L0 368.057C-3.81518e-09 373.711 2.2462 379.134 6.24448 383.132L149.868 526.756C153.866 530.754 159.289 533 164.943 533H239.85V1005.37H273.162H293.15V533H368.057C373.711 533 379.134 530.754 383.132 526.756L526.756 383.132C530.754 379.134 533 373.711 533 368.057V164.943C533 159.289 530.754 153.866 526.756 149.868L383.132 6.24448C379.134 2.24621 373.711 -1.76686e-07 368.057 0L164.943 6.34678e-06ZM293.15 516.344H361.158C366.812 516.344 372.235 514.098 376.233 510.099L510.099 376.233C514.098 372.235 516.344 366.812 516.344 361.158V171.842C516.344 166.188 514.098 160.765 510.099 156.767L376.233 22.9007C372.235 18.9025 366.812 16.6562 361.158 16.6562L171.842 16.6563C166.188 16.6563 160.765 18.9025 156.767 22.9007L22.9007 156.767C18.9025 160.765 16.6562 166.188 16.6562 171.842V361.158C16.6562 366.812 18.9025 372.235 22.9007 376.233L156.767 510.099C160.765 514.098 166.188 516.344 171.842 516.344H239.85H273.162H293.15ZM293.15 499.687H273.162H239.85H178.742C173.087 499.687 167.664 497.441 163.666 493.443L39.557 369.334C35.5587 365.336 33.3125 359.913 33.3125 354.258V178.742C33.3125 173.087 35.5587 167.664 39.557 163.666L163.666 39.557C167.664 35.5587 173.087 33.3125 178.742 33.3125L354.258 33.3125C359.913 33.3125 365.336 35.5587 369.334 39.557L493.443 163.666C497.441 167.664 499.687 173.087 499.687 178.742V354.258C499.687 359.913 497.441 365.336 493.443 369.334L369.334 493.443C365.336 497.441 359.913 499.687 354.258 499.687H293.15ZM208.58 339.639L193.691 336.102L188.783 356.764L160.039 349.935L165.23 329.341L104.846 314.996L110.418 291.539L180.489 223.313L190.212 225.623L201.333 228.265L218.349 232.307L199.321 312.402L214.21 315.939L208.58 339.639ZM181.675 257.236L182.664 257.47L171.226 305.728L140.375 298.398L140.606 297.426L181.675 257.236ZM257.486 342.069C265.268 347.164 274.534 349.711 285.284 349.711C296.075 349.711 305.341 347.184 313.083 342.13C320.864 337.035 326.861 329.675 331.073 320.048C335.285 310.42 337.391 298.828 337.391 285.27C337.431 271.792 335.345 260.319 331.133 250.853C326.921 241.386 320.905 234.186 313.083 229.252C305.301 224.278 296.035 221.791 285.284 221.791C274.534 221.791 265.268 224.278 257.486 229.252C249.744 234.186 243.767 241.386 239.556 250.853C235.384 260.279 233.278 271.752 233.238 285.27C233.198 298.788 235.284 310.36 239.495 319.987C243.707 329.574 249.704 336.935 257.486 342.069ZM285.284 325.342C291.702 325.342 296.897 322.073 300.868 315.535C304.839 308.956 306.805 298.868 306.765 285.27C306.765 276.365 305.862 269.024 304.057 263.248C302.252 257.431 299.745 253.099 296.536 250.251C293.327 247.403 289.576 245.979 285.284 245.979C278.906 245.979 273.752 249.208 269.821 255.666C265.89 262.084 263.904 271.952 263.864 285.27C263.824 294.295 264.686 301.776 266.451 307.713C268.256 313.649 270.783 318.082 274.033 321.01C277.282 323.898 281.032 325.342 285.284 325.342ZM394.905 215.745L432.777 337.93L403.304 347.065L373.976 252.443L373.26 252.665L351.113 277.84L343.198 252.305L367.52 224.233L394.905 215.745ZM249.906 153.821L259.775 171.892H248.918L240.107 155.403H232.928V171.892H223.093V125.376H241.446C244.959 125.376 247.957 126.005 250.44 127.261C252.938 128.503 254.839 130.267 256.141 132.553C257.458 134.825 258.117 137.497 258.117 140.571C258.117 143.66 257.451 146.318 256.118 148.543C254.786 150.754 252.855 152.45 250.326 153.631C250.188 153.696 250.048 153.76 249.906 153.821ZM232.928 147.499H239.606C241.483 147.499 243.043 147.241 244.285 146.726C245.526 146.212 246.45 145.439 247.056 144.41C247.677 143.38 247.987 142.101 247.987 140.571C247.987 139.027 247.677 137.724 247.056 136.665C246.45 135.605 245.519 134.802 244.262 134.257C243.02 133.697 241.453 133.417 239.56 133.417H232.928V147.499ZM265.067 125.376V171.892H274.902V155.403H282.081L290.892 171.892H301.749L291.879 153.821C292.021 153.76 292.161 153.696 292.3 153.631C294.829 152.45 296.759 150.754 298.092 148.543C299.424 146.318 300.091 143.66 300.091 140.571C300.091 137.497 299.432 134.825 298.115 132.553C296.812 130.267 294.912 128.503 292.414 127.261C289.93 126.005 286.932 125.376 283.419 125.376H265.067ZM281.58 147.499H274.902V133.417H281.534C283.427 133.417 284.994 133.697 286.236 134.257C287.493 134.802 288.424 135.605 289.029 136.665C289.65 137.724 289.961 139.027 289.961 140.571C289.961 142.101 289.65 143.38 289.029 144.41C288.424 145.439 287.5 146.212 286.258 146.726C285.017 147.241 283.457 147.499 281.58 147.499ZM150.697 409.77L148.972 415.074H143.703L151.732 391.816H158.069L166.086 415.074H160.817L159.095 409.77H150.697ZM157.849 405.932L154.991 397.13H154.809L151.946 405.932H157.849ZM148.961 389.487L151.641 389.522C151.641 388.992 151.762 388.571 152.004 388.261C152.247 387.951 152.565 387.795 152.958 387.795C153.299 387.795 153.606 387.882 153.878 388.057C154.151 388.231 154.431 388.431 154.719 388.658C155.006 388.878 155.339 389.075 155.718 389.249C156.104 389.423 156.577 389.506 157.138 389.499C158.167 389.491 159.038 389.101 159.75 388.329C160.461 387.549 160.825 386.444 160.84 385.013L158.194 384.933C158.194 385.456 158.076 385.88 157.842 386.205C157.614 386.523 157.281 386.686 156.842 386.694C156.517 386.694 156.214 386.61 155.934 386.444C155.654 386.27 155.358 386.069 155.048 385.842C154.738 385.615 154.393 385.418 154.014 385.251C153.636 385.077 153.182 384.99 152.652 384.99C151.614 384.998 150.74 385.388 150.028 386.16C149.317 386.932 148.961 388.041 148.961 389.487ZM205.944 409.77H214.342L216.064 415.074H221.333L213.315 391.816H206.979L198.949 415.074H204.219L205.944 409.77ZM207.193 405.932H213.095L210.238 397.13H210.056L207.193 405.932ZM301.284 406.829H297.694V415.074H292.777V391.816H301.953C303.71 391.816 305.209 392.13 306.45 392.758C307.7 393.379 308.65 394.261 309.301 395.404C309.96 396.54 310.289 397.876 310.289 399.413C310.289 400.958 309.956 402.286 309.29 403.399C308.623 404.505 307.658 405.353 306.394 405.943L306.361 405.958C306.348 405.964 306.335 405.97 306.322 405.976C306.276 405.997 306.23 406.018 306.183 406.038L311.118 415.074H305.689L301.284 406.829ZM297.694 395.836V402.877H301.033C301.972 402.877 302.752 402.748 303.373 402.491C303.994 402.233 304.455 401.847 304.758 401.332C305.069 400.818 305.224 400.178 305.224 399.413C305.224 398.641 305.069 397.99 304.758 397.46C304.455 396.93 303.99 396.529 303.361 396.256C302.741 395.976 301.957 395.836 301.011 395.836H297.694ZM349.792 409.77H358.189L359.911 415.074H365.181L357.163 391.816H350.826L342.797 415.074H348.066L349.792 409.77ZM351.04 405.932H356.943L354.085 397.13H353.904L351.04 405.932ZM183.93 125.376V171.892H215.365V163.784H193.765V152.677H213.662V144.569H193.765V133.485H215.274V125.376H183.93ZM349.787 148.634C349.787 153.707 348.825 158.022 346.902 161.581C344.994 165.139 342.39 167.857 339.089 169.735C335.803 171.597 332.109 172.528 328.005 172.528C323.871 172.528 320.162 171.59 316.876 169.712C313.59 167.834 310.993 165.116 309.085 161.558C307.177 158 306.223 153.692 306.223 148.634C306.223 143.562 307.177 139.246 309.085 135.688C310.993 132.129 313.59 129.419 316.876 127.557C320.162 125.679 323.871 124.74 328.005 124.74C332.109 124.74 335.803 125.679 339.089 127.557C342.39 129.419 344.994 132.129 346.902 135.688C348.825 139.246 349.787 143.562 349.787 148.634ZM338.34 140.321C339.324 142.577 339.816 145.348 339.816 148.634C339.816 151.92 339.324 154.691 338.34 156.947C337.37 159.203 336 160.915 334.228 162.08C332.457 163.246 330.382 163.829 328.005 163.829C325.628 163.829 323.553 163.246 321.782 162.08C320.01 160.915 318.632 159.203 317.648 156.947C316.679 154.691 316.194 151.92 316.194 148.634C316.194 145.348 316.679 142.577 317.648 140.321C318.632 138.065 320.01 136.354 321.782 135.188C323.553 134.022 325.628 133.439 328.005 133.439C330.382 133.439 332.457 134.022 334.228 135.188C336 136.354 337.37 138.065 338.34 140.321ZM140.901 415.074V391.816H136.006V406.443H135.801L125.762 391.816H121.447V415.074H126.364V400.435H126.535L136.653 415.074H140.901ZM189.166 403.445C189.166 405.981 188.685 408.139 187.723 409.918C186.77 411.697 185.467 413.056 183.817 413.995C182.174 414.926 180.327 415.392 178.275 415.392C176.208 415.392 174.353 414.922 172.71 413.984C171.067 413.045 169.769 411.686 168.815 409.907C167.861 408.127 167.384 405.973 167.384 403.445C167.384 400.908 167.861 398.751 168.815 396.971C169.769 395.192 171.067 393.837 172.71 392.906C174.353 391.967 176.208 391.498 178.275 391.498C180.327 391.498 182.174 391.967 183.817 392.906C185.467 393.837 186.77 395.192 187.723 396.971C188.685 398.751 189.166 400.908 189.166 403.445ZM183.442 399.288C183.934 400.416 184.18 401.802 184.18 403.445C184.18 405.088 183.934 406.473 183.442 407.601C182.958 408.729 182.272 409.585 181.387 410.168C180.501 410.751 179.464 411.042 178.275 411.042C177.086 411.042 176.049 410.751 175.163 410.168C174.277 409.585 173.588 408.729 173.096 407.601C172.612 406.473 172.369 405.088 172.369 403.445C172.369 401.802 172.612 400.416 173.096 399.288C173.588 398.16 174.277 397.305 175.163 396.722C176.049 396.139 177.086 395.847 178.275 395.847C179.464 395.847 180.501 396.139 181.387 396.722C182.272 397.305 182.958 398.16 183.442 399.288ZM243.416 391.816H238.499V406.5C238.499 407.385 238.302 408.173 237.908 408.862C237.522 409.551 236.973 410.092 236.261 410.486C235.557 410.879 234.728 411.076 233.774 411.076C232.828 411.076 231.999 410.879 231.287 410.486C230.575 410.092 230.023 409.551 229.629 408.862C229.243 408.173 229.05 407.385 229.05 406.5V391.816H224.133V406.92C224.133 408.616 224.534 410.1 225.336 411.372C226.139 412.643 227.263 413.635 228.709 414.347C230.155 415.051 231.844 415.403 233.774 415.403C235.697 415.403 237.382 415.051 238.828 414.347C240.274 413.635 241.398 412.643 242.201 411.372C243.011 410.1 243.416 408.616 243.416 406.92V391.816ZM246.576 395.87V391.816H265.678V395.87H258.557V415.074H253.696V395.87H246.576ZM287.692 409.918C288.654 408.139 289.135 405.981 289.135 403.445C289.135 400.908 288.654 398.751 287.692 396.971C286.738 395.192 285.436 393.837 283.786 392.906C282.143 391.967 280.295 391.498 278.244 391.498C276.177 391.498 274.322 391.967 272.679 392.906C271.036 393.837 269.738 395.192 268.784 396.971C267.83 398.751 267.353 400.908 267.353 403.445C267.353 405.973 267.83 408.127 268.784 409.907C269.738 411.686 271.036 413.045 272.679 413.984C274.322 414.922 276.177 415.392 278.244 415.392C280.295 415.392 282.143 414.926 283.786 413.995C285.436 413.056 286.738 411.697 287.692 409.918ZM284.149 403.445C284.149 401.802 283.903 400.416 283.411 399.288C282.926 398.16 282.241 397.305 281.355 396.722C280.469 396.139 279.432 395.847 278.244 395.847C277.055 395.847 276.018 396.139 275.132 396.722C274.246 397.305 273.557 398.16 273.065 399.288C272.58 400.416 272.338 401.802 272.338 403.445C272.338 405.088 272.58 406.473 273.065 407.601C273.557 408.729 274.246 409.585 275.132 410.168C276.018 410.751 277.055 411.042 278.244 411.042C279.432 411.042 280.469 410.751 281.355 410.168C282.241 409.585 282.926 408.729 283.411 407.601C283.903 406.473 284.149 405.088 284.149 403.445ZM318.681 391.816V415.074H313.764V391.816H318.681ZM322.477 412.155V415.074H340.284V411.019H328.644L340.262 394.734V391.816H322.455V395.87H334.084L322.477 412.155ZM376.225 415.074H367.98V391.816H376.293C378.633 391.816 380.646 392.281 382.335 393.212C384.023 394.136 385.322 395.465 386.23 397.199C387.146 398.932 387.604 401.007 387.604 403.422C387.604 405.845 387.146 407.927 386.23 409.668C385.322 411.409 384.016 412.746 382.312 413.677C380.616 414.608 378.587 415.074 376.225 415.074ZM376.021 410.86H372.897V396.029H376.032C377.486 396.029 378.708 396.286 379.7 396.801C380.692 397.316 381.438 398.118 381.937 399.209C382.445 400.299 382.698 401.703 382.698 403.422C382.698 405.156 382.445 406.571 381.937 407.669C381.438 408.76 380.688 409.566 379.689 410.088C378.697 410.603 377.474 410.86 376.021 410.86ZM411.177 409.918C412.139 408.139 412.62 405.981 412.62 403.445C412.62 400.908 412.139 398.751 411.177 396.971C410.224 395.192 408.921 393.837 407.271 392.906C405.628 391.967 403.781 391.498 401.729 391.498C399.662 391.498 397.807 391.967 396.164 392.906C394.521 393.837 393.223 395.192 392.269 396.971C391.315 398.751 390.838 400.908 390.838 403.445C390.838 405.973 391.315 408.127 392.269 409.907C393.223 411.686 394.521 413.045 396.164 413.984C397.807 414.922 399.662 415.392 401.729 415.392C403.781 415.392 405.628 414.926 407.271 413.995C408.921 413.056 410.224 411.697 411.177 409.918ZM407.634 403.445C407.634 401.802 407.388 400.416 406.896 399.288C406.412 398.16 405.726 397.305 404.841 396.722C403.955 396.139 402.918 395.847 401.729 395.847C400.54 395.847 399.503 396.139 398.617 396.722C397.731 397.305 397.042 398.16 396.55 399.288C396.066 400.416 395.823 401.802 395.823 403.445C395.823 405.088 396.066 406.473 396.55 407.601C397.042 408.729 397.731 409.585 398.617 410.168C399.503 410.751 400.54 411.042 401.729 411.042C402.918 411.042 403.955 410.751 404.841 410.168C405.726 409.585 406.412 408.729 406.896 407.601C407.388 406.473 407.634 405.088 407.634 403.445Z" fill="#EF4444"/>
<path fill-rule="evenodd" clip-rule="evenodd" d="M239.85 533V1005.37H273.162V533H239.85Z" fill="#CBD5E1"/>
<path d="M273.162 1005.37H293.15V533H273.162V1005.37Z" fill="#CBD5E1"/>
<path d="M273.162 1005.37H293.15V533H273.162V1005.37Z" fill="#94A3B8"/>
</g>
<defs>
<clipPath id="clip0_866_9102">
<rect width="533" height="847" fill="white"/>
</clipPath>
</defs>
</svg>
