<svg width="81" height="80" viewBox="0 0 81 80" fill="none" xmlns="http://www.w3.org/2000/svg">
<rect width="80.0976" height="80" fill="#3B82F6"/>
<path d="M15.0183 35.5V32H29.1997V35.5H24.292V48H19.926V35.5H15.0183Z" fill="#F9FAFB"/>
<path d="M50.2826 32V48H45.8529V32H50.2826Z" fill="#F9FAFB"/>
<path fill-rule="evenodd" clip-rule="evenodd" d="M30.8668 48V32H37.9097C39.1207 32 40.1803 32.2161 41.0886 32.6484C41.9968 33.0807 42.7032 33.7031 43.2078 34.5156C43.7124 35.3281 43.9647 36.3021 43.9647 37.4375C43.9647 38.5833 43.7044 39.5495 43.1839 40.3359C42.703 41.07 42.0393 41.6362 41.1928 42.0345L44.5064 48H39.6943L36.8296 42.7187H35.2965V48H30.8668ZM36.858 39.3438H35.2965V35.4687H36.858C37.3786 35.4687 37.8221 35.5391 38.1885 35.6797C38.5603 35.8151 38.8445 36.0286 39.041 36.3203C39.2428 36.6068 39.3438 36.9792 39.3438 37.4375C39.3438 37.8906 39.2428 38.2578 39.041 38.5391C38.8445 38.8203 38.5603 39.026 38.1885 39.1563C37.8221 39.2813 37.3786 39.3438 36.858 39.3438Z" fill="#F9FAFB"/>
<path fill-rule="evenodd" clip-rule="evenodd" d="M52.3819 48V32H59.4248C60.6358 32 61.6954 32.2344 62.6036 32.7031C63.5119 33.1719 64.2183 33.8307 64.7229 34.6797C65.2275 35.5286 65.4798 36.5208 65.4798 37.6562C65.4798 38.8021 65.2195 39.7943 64.699 40.6328C64.1838 41.4714 63.4588 42.1172 62.524 42.5703C61.5945 43.0234 60.5083 43.25 59.2654 43.25H56.8116V48H52.3819ZM59.7036 39.6094C59.3371 39.7865 58.8936 39.875 58.3731 39.875H56.8116V35.4687H58.3731C58.8936 35.4687 59.3371 35.5573 59.7036 35.7344C60.0754 35.9062 60.3596 36.1563 60.5561 36.4844C60.7579 36.8073 60.8588 37.1979 60.8588 37.6562C60.8588 38.1094 60.7579 38.5026 60.5561 38.8359C60.3596 39.1693 60.0754 39.4271 59.7036 39.6094Z" fill="#F9FAFB"/>
</svg>
