<svg width="204" height="36" viewBox="0 0 204 36" fill="none" xmlns="http://www.w3.org/2000/svg">
<path d="M0.749023 6.14634V0H25.1698V6.14634H16.7185V28.0976H9.20024V6.14634H0.749023Z" fill="#3B82F6"/>
<path d="M61.475 0V28.0976H53.847V0H61.475Z" fill="#3B82F6"/>
<path d="M111.791 7.02439L104.712 28.0976H95.9315L88.8523 7.02439H96.8096L100.212 20.9634H100.432L103.834 7.02439H111.791Z" fill="white"/>
<path d="M119.289 28.4268C117.945 28.4268 116.755 28.2073 115.722 27.7683C114.698 27.3201 113.893 26.6433 113.307 25.7378C112.722 24.8323 112.429 23.6799 112.429 22.2805C112.429 21.128 112.626 20.1448 113.019 19.3308C113.412 18.5076 113.961 17.8354 114.666 17.314C115.37 16.7927 116.188 16.3948 117.121 16.1204C118.063 15.846 119.079 15.6677 120.167 15.5854C121.347 15.4939 122.294 15.3841 123.007 15.2561C123.73 15.1189 124.251 14.9314 124.571 14.6936C124.891 14.4466 125.051 14.122 125.051 13.7195V13.6646C125.051 13.1159 124.841 12.6951 124.42 12.4024C123.999 12.1098 123.46 11.9634 122.801 11.9634C122.079 11.9634 121.489 12.1235 121.031 12.4436C120.583 12.7546 120.313 13.2348 120.222 13.8841H113.252C113.344 12.6037 113.751 11.4238 114.473 10.3445C115.205 9.2561 116.271 8.3872 117.67 7.73781C119.07 7.07927 120.816 6.75 122.911 6.75C124.42 6.75 125.774 6.92835 126.972 7.28506C128.17 7.63262 129.19 8.12195 130.031 8.75305C130.873 9.375 131.513 10.1067 131.952 10.9482C132.4 11.7805 132.624 12.686 132.624 13.6646V28.0976H125.545V25.1341H125.38C124.96 25.9207 124.448 26.5564 123.844 27.0412C123.249 27.5259 122.568 27.878 121.8 28.0976C121.041 28.3171 120.204 28.4268 119.289 28.4268ZM121.759 23.6524C122.335 23.6524 122.874 23.5335 123.377 23.2957C123.89 23.0579 124.306 22.7149 124.626 22.2668C124.946 21.8186 125.106 21.2744 125.106 20.6341V18.878C124.905 18.9604 124.69 19.0381 124.461 19.1113C124.242 19.1845 124.004 19.253 123.748 19.3171C123.501 19.3811 123.236 19.4405 122.952 19.4954C122.678 19.5503 122.39 19.6006 122.088 19.6463C121.502 19.7378 121.022 19.8887 120.647 20.0991C120.281 20.3003 120.007 20.5518 119.824 20.8537C119.65 21.1463 119.563 21.4756 119.563 21.8415C119.563 22.4268 119.769 22.875 120.181 23.186C120.592 23.497 121.118 23.6524 121.759 23.6524Z" fill="white"/>
<path d="M143.816 0V28.0976H136.243V0H143.816Z" fill="white"/>
<path d="M155.248 0V28.0976H147.675V0H155.248Z" fill="white"/>
<path d="M186.693 36C185.824 36 184.996 35.9314 184.21 35.7942C183.423 35.6662 182.733 35.4878 182.138 35.2591L183.784 29.8811C184.406 30.1006 184.973 30.2424 185.486 30.3064C186.007 30.3704 186.451 30.3338 186.816 30.1966C187.191 30.0595 187.461 29.7988 187.626 29.4146L187.791 29.0305L180.382 7.02439H188.284L191.687 21.622H191.906L195.364 7.02439H203.321L195.638 29.8537C195.254 31.0152 194.696 32.0579 193.964 32.9817C193.242 33.9146 192.291 34.6509 191.111 35.1905C189.931 35.7302 188.458 36 186.693 36Z" fill="white"/>
<path fill-rule="evenodd" clip-rule="evenodd" d="M28.0406 28.0976V0H40.1686C42.254 0 44.0787 0.379573 45.6427 1.13872C47.2067 1.89787 48.4232 2.99085 49.2921 4.41768C50.161 5.84451 50.5954 7.55488 50.5954 9.54878C50.5954 11.561 50.1473 13.2576 49.2509 14.6387C48.4228 15.9278 47.2799 16.9221 45.8223 17.6216L51.5284 28.0976H43.2418L38.3086 18.8232H35.6686V28.0976H28.0406ZM38.3576 12.8963H35.6686V6.09146H38.3576C39.254 6.09146 40.0177 6.21494 40.6488 6.46189C41.289 6.69969 41.7784 7.0747 42.1168 7.58689C42.4643 8.08994 42.6381 8.7439 42.6381 9.54878C42.6381 10.3445 42.4643 10.9893 42.1168 11.4832C41.7784 11.9771 41.289 12.3384 40.6488 12.5671C40.0177 12.7866 39.254 12.8963 38.3576 12.8963Z" fill="#3B82F6"/>
<path fill-rule="evenodd" clip-rule="evenodd" d="M65.0901 28.0976V0H77.2181C79.3035 0 81.1282 0.411586 82.6922 1.23476C84.2563 2.05793 85.4727 3.21494 86.3416 4.70579C87.2105 6.19665 87.645 7.93902 87.645 9.93293C87.645 11.9451 87.1968 13.6875 86.3005 15.1601C85.4133 16.6326 84.1648 17.7668 82.555 18.5625C80.9544 19.3582 79.084 19.7561 76.9437 19.7561H72.7181V28.0976H65.0901ZM77.6983 13.3628C77.0672 13.6738 76.3035 13.8293 75.4072 13.8293H72.7181V6.09146H75.4072C76.3035 6.09146 77.0672 6.24695 77.6983 6.55793C78.3386 6.85976 78.8279 7.29878 79.1663 7.875C79.5139 8.44207 79.6877 9.12805 79.6877 9.93293C79.6877 10.7287 79.5139 11.4192 79.1663 12.0046C78.8279 12.5899 78.3386 13.0427 77.6983 13.3628Z" fill="#3B82F6"/>
<path fill-rule="evenodd" clip-rule="evenodd" d="M163.387 27.1921C165.015 28.0518 166.954 28.4817 169.204 28.4817C171.152 28.4817 172.853 28.189 174.308 27.6037C175.771 27.0091 176.946 26.1768 177.834 25.1067C178.721 24.0274 179.283 22.7561 179.521 21.2927H172.606C172.46 21.686 172.231 22.0244 171.92 22.3079C171.61 22.5823 171.235 22.7927 170.795 22.939C170.366 23.0854 169.89 23.1585 169.369 23.1585C168.619 23.1585 167.978 23.0076 167.448 22.7058C166.917 22.404 166.51 21.9878 166.227 21.4573C165.943 20.9268 165.802 20.3232 165.802 19.6463V19.3171H179.521V17.561C179.521 15.8872 179.274 14.3826 178.78 13.0473C178.286 11.7119 177.582 10.5777 176.667 9.64482C175.753 8.70274 174.651 7.98476 173.361 7.49085C172.071 6.99695 170.631 6.75 169.039 6.75C166.863 6.75 164.974 7.20274 163.373 8.10823C161.773 9.01372 160.533 10.2805 159.655 11.9085C158.777 13.5366 158.338 15.439 158.338 17.6159C158.338 19.8841 158.773 21.8323 159.642 23.4604C160.52 25.0793 161.768 26.3232 163.387 27.1921ZM165.802 15.1463H172.552C172.542 14.5427 172.387 14.0122 172.085 13.5549C171.792 13.0884 171.395 12.7271 170.892 12.471C170.398 12.2058 169.835 12.0732 169.204 12.0732C168.591 12.0732 168.029 12.2058 167.517 12.471C167.004 12.7271 166.593 13.0838 166.282 13.5412C165.98 13.9985 165.82 14.5335 165.802 15.1463Z" fill="white"/>
</svg>
