<svg width="627" height="463" viewBox="0 0 627 463" fill="none" xmlns="http://www.w3.org/2000/svg">
<path d="M7.02475 330.121L13.6787 283.05L158.154 113.821L198.795 119.566L189.585 184.72L165.532 181.319L74.3787 288.533L74.0665 290.742L242.023 314.484L235.252 362.383L7.02475 330.121ZM135.886 399.023L144.94 334.974L148.992 314.286L176.954 116.478L233.078 124.412L193.115 407.113L135.886 399.023Z" fill="#EF4444"/>
<path d="M391.042 382.75L379.113 336.732L447.538 125.001L487.27 114.701L503.782 178.398L480.267 184.493L437.266 318.488L437.825 320.647L602.024 278.082L614.163 324.909L391.042 382.75ZM536.482 396.893L520.25 334.277L516.048 313.619L465.917 120.237L520.785 106.013L592.431 382.389L536.482 396.893Z" fill="#EF4444"/>
<path d="M281.107 64.4937C280.82 64.5708 280.581 64.5534 280.388 64.4432C280.196 64.3329 280.055 64.2439 279.967 64.1763L270.074 55.5595L272.864 65.9717C272.913 66.1576 272.889 66.336 272.79 66.5055C272.692 66.6772 272.549 66.7869 272.362 66.837L270.316 67.3852C270.131 67.4348 269.953 67.4109 269.782 67.3114C269.612 67.2139 269.501 67.0719 269.451 66.886L265.077 50.5605C265.027 50.3756 265.052 50.1972 265.151 50.0266C265.249 49.856 265.391 49.7453 265.576 49.6957L267.345 49.2218C267.633 49.1447 267.869 49.1616 268.062 49.2729C268.254 49.3834 268.397 49.4726 268.486 49.5392L278.379 58.1561L275.589 47.7439C275.539 47.559 275.564 47.3806 275.663 47.21C275.761 47.0394 275.903 46.9286 276.088 46.8791L278.136 46.3303C278.321 46.2808 278.499 46.3056 278.67 46.4041C278.841 46.5026 278.951 46.6447 279.001 46.8296L283.375 63.155C283.425 63.3409 283.4 63.5193 283.302 63.6889C283.203 63.8606 283.061 63.9703 282.876 64.0198L281.107 64.4937Z" fill="#111827"/>
<path d="M365.044 396.344C366.172 396.042 367.208 395.926 368.148 396C369.087 396.073 369.905 396.26 370.6 396.561C371.294 396.863 371.864 397.247 372.305 397.715C372.747 398.184 373.048 398.658 373.213 399.139C373.283 399.336 373.266 399.517 373.157 399.682C373.045 399.846 372.901 399.954 372.714 400.004L370.945 400.478C370.657 400.555 370.428 400.558 370.257 400.486C370.085 400.414 369.913 400.303 369.747 400.148C369.382 399.796 368.9 399.531 368.303 399.357C367.704 399.183 366.902 399.231 365.89 399.503C365.451 399.62 365.046 399.779 364.675 399.977C364.306 400.175 363.997 400.402 363.749 400.658C363.502 400.915 363.326 401.191 363.226 401.49C363.125 401.787 363.117 402.096 363.203 402.417C363.307 402.804 363.472 403.099 363.697 403.299C363.923 403.501 364.249 403.639 364.675 403.714C365.101 403.789 365.648 403.819 366.31 403.805C366.975 403.788 367.798 403.759 368.78 403.712C369.847 403.661 370.789 403.684 371.602 403.781C372.412 403.882 373.104 404.075 373.68 404.363C374.254 404.652 374.727 405.035 375.098 405.513C375.471 405.992 375.748 406.576 375.933 407.267C376.137 408.025 376.157 408.775 375.992 409.512C375.829 410.25 375.5 410.936 374.999 411.566C374.502 412.197 373.834 412.768 372.995 413.282C372.156 413.795 371.173 414.203 370.046 414.505C369.101 414.758 368.169 414.886 367.25 414.889C366.331 414.891 365.478 414.767 364.699 414.515C363.917 414.264 363.244 413.89 362.678 413.393C362.11 412.894 361.703 412.282 361.454 411.553C361.382 411.355 361.402 411.174 361.51 411.009C361.619 410.844 361.767 410.738 361.953 410.688L363.723 410.214C364.007 410.137 364.239 410.129 364.42 410.189C364.599 410.25 364.765 410.366 364.92 410.543C365.097 410.731 365.299 410.911 365.526 411.085C365.753 411.258 366.034 411.391 366.364 411.483C366.696 411.576 367.092 411.618 367.551 411.611C368.009 411.606 368.557 411.517 369.199 411.345C369.704 411.21 370.182 411.042 370.636 410.84C371.085 410.639 371.464 410.402 371.772 410.129C372.078 409.858 372.305 409.561 372.454 409.242C372.603 408.922 372.626 408.569 372.522 408.181C372.423 407.81 372.224 407.538 371.924 407.365C371.626 407.193 371.212 407.086 370.688 407.046C370.163 407.006 369.527 407.006 368.777 407.044C368.029 407.083 367.161 407.107 366.171 407.119C365.274 407.144 364.473 407.101 363.766 406.992C363.06 406.883 362.445 406.682 361.926 406.389C361.404 406.093 360.97 405.7 360.62 405.207C360.271 404.715 359.994 404.089 359.791 403.331C359.588 402.573 359.569 401.829 359.736 401.096C359.9 400.367 360.216 399.696 360.684 399.082C361.152 398.47 361.76 397.922 362.507 397.442C363.255 396.962 364.099 396.597 365.044 396.344Z" fill="#111827"/>
<path d="M500.982 189.114C501.167 189.064 501.346 189.09 501.516 189.188C501.687 189.286 501.798 189.429 501.847 189.614L502.328 191.409C502.378 191.594 502.353 191.772 502.254 191.943C502.156 192.114 502.014 192.224 501.829 192.274L490.735 195.246C490.549 195.296 490.372 195.272 490.2 195.173C490.029 195.074 489.92 194.932 489.87 194.747L485.496 178.421C485.446 178.237 485.47 178.058 485.568 177.888C485.668 177.716 485.809 177.607 485.995 177.557L496.887 174.638C497.072 174.589 497.25 174.613 497.423 174.712C497.593 174.81 497.702 174.953 497.752 175.138L498.232 176.932C498.282 177.117 498.259 177.295 498.161 177.466C498.06 177.636 497.918 177.747 497.733 177.797L489.57 179.984L490.647 184.001L498.254 181.963C498.439 181.913 498.617 181.938 498.788 182.037C498.959 182.136 499.069 182.277 499.119 182.463L499.6 184.258C499.649 184.443 499.624 184.621 499.526 184.791C499.428 184.963 499.285 185.073 499.1 185.122L491.493 187.161L492.617 191.355L500.982 189.114Z" fill="#111827"/>
<path d="M151.137 277.221L150.989 285.359C150.973 285.636 150.922 285.871 150.838 286.064C150.755 286.258 150.588 286.388 150.333 286.457L148.287 287.005C148.034 287.073 147.816 287.045 147.628 286.924C147.441 286.803 147.292 286.622 147.172 286.382L139.665 271.302L139.585 271.108C139.535 270.923 139.561 270.745 139.659 270.574C139.757 270.402 139.9 270.293 140.084 270.243L141.954 269.742C142.122 269.697 142.296 269.704 142.476 269.764C142.654 269.826 142.803 269.975 142.921 270.214L147.914 280.36L147.978 273.112C147.979 272.985 148.018 272.811 148.095 272.593C148.172 272.373 148.361 272.222 148.664 272.141L150.737 271.585C151.04 271.504 151.279 271.54 151.458 271.692C151.632 271.843 151.752 271.974 151.818 272.083L155.496 278.328L154.749 267.045C154.732 266.779 154.785 266.575 154.91 266.433C155.033 266.292 155.18 266.198 155.349 266.153L157.219 265.652C157.405 265.602 157.584 265.626 157.754 265.725C157.925 265.824 158.034 265.966 158.083 266.151L158.113 266.359L159.15 283.173C159.168 283.44 159.127 283.672 159.027 283.869C158.926 284.068 158.749 284.202 158.496 284.269L156.45 284.818C156.197 284.885 155.987 284.856 155.815 284.73C155.648 284.604 155.487 284.426 155.335 284.195L151.137 277.221Z" fill="#111827"/>
<path d="M209.459 252.985C198.616 197.546 230.543 142.217 283.957 123.856L282.838 113.016C222.231 132.517 186.061 195.194 199.511 257.43L199.659 257.364L209.459 252.985Z" fill="#111827"/>
<path d="M299.235 119.758C354.675 108.919 410.006 140.85 428.361 194.27L439.205 193.161C419.712 132.541 357.026 96.3605 294.782 109.813L295.7 111.862L299.235 119.758Z" fill="#111827"/>
<path d="M432.457 209.544C443.293 264.979 411.366 320.303 357.954 338.66L358.078 339.884L359.055 349.507C419.672 330.014 455.851 267.332 442.402 205.089L434.565 208.6L432.457 209.544Z" fill="#111827"/>
<path d="M342.674 342.757C287.24 353.593 231.916 321.67 213.557 268.26L202.71 269.362L202.711 269.363C222.205 329.974 284.883 366.15 347.121 352.704L342.674 342.757Z" fill="#111827"/>
<path fill-rule="evenodd" clip-rule="evenodd" d="M213.557 268.26L202.711 269.363L202.71 269.362L213.557 268.26Z" fill="#111827"/>
<path fill-rule="evenodd" clip-rule="evenodd" d="M168.795 272.451L169.324 272.757L202.711 269.363L202.71 269.362L213.557 268.26L220.454 267.56L220.706 267.735C232.643 302.836 266.608 331.211 304.028 336.638C315.571 338.528 327.4 338.425 339.498 336.289L339.996 336.766L342.674 342.757L347.121 352.704L360.8 383.304C361.13 383.622 361.756 383.824 362.146 383.432L362.44 382.864L358.078 339.884L357.255 331.774L357.38 331.497C392.736 319.445 421.409 284.911 426.503 247.169C428.15 235.938 428.101 224.468 425.977 212.733L426.422 212.246L434.564 208.599L472.984 191.391C473.316 191.098 473.506 190.434 473.124 190.087L472.545 189.754L428.361 194.27L421.469 194.975L421.175 194.811C409.128 159.456 374.596 130.78 336.867 125.725C325.633 124.078 314.124 124.137 302.377 126.223L301.928 125.771L299.235 119.758L295.7 111.862L294.782 109.813L281.075 79.205C280.909 78.8797 280.465 78.9182 280.17 78.8741C279.647 79.056 279.367 79.5394 279.442 80.1325L282.838 113.016L283.957 123.856L284.67 130.761L284.495 131.015C249.394 142.95 221.013 176.918 215.594 214.339C213.694 225.883 213.815 237.743 215.903 249.814L215.462 250.301L209.459 252.985L199.659 257.364L199.511 257.43L168.885 271.119C168.603 271.438 168.405 272.064 168.795 272.451ZM292.843 217.547L181.359 267.654L318.34 230.95L294.333 217.028L292.843 217.547ZM231.364 266.638C229.163 266.655 226.852 267.031 224.582 267.27C232.96 289.382 247.334 306.866 268.024 319.556L268.254 319.494C268.895 317.318 269.37 315.104 269.923 312.915C264.633 309.629 259.844 305.969 255.534 301.931L255.703 301.645L271.001 295.458L260.459 285.533L255.163 301.46C244.655 291.974 236.727 280.242 231.364 266.638ZM275.773 316.289C274.034 317.736 272.598 319.552 270.896 320.99L270.957 321.218C292.299 332.829 314.591 336.54 337.961 332.695L335.263 326.591C320.818 328.661 306.763 327.604 293.088 323.422L304.183 310.803L290.46 306.594L292.607 322.976L292.428 323.233C286.825 321.547 281.253 319.196 275.773 316.289ZM323.292 299.921L313.436 278.081L296.483 295.21L296.4 295.355C304.983 298.861 314.056 300.232 323.292 299.921ZM324.761 303.737C313.972 304.34 303.526 302.562 293.334 298.385C291.566 300.208 289.731 301.886 288.076 303.8C300.948 309.424 314.206 311.921 328.018 310.548L325.056 303.903L324.761 303.737ZM303.646 259.244C298.02 259.608 292.097 260.378 286.358 260.935L271.636 314.58L303.646 259.244ZM274.547 296.021L276.615 288.761C267.916 281.937 260.978 273.744 256.089 264.02C253.63 264.473 251.226 264.34 248.773 264.795C254.482 277.405 263.283 287.677 274.547 296.021ZM260.573 263.511L260.34 263.573C264.646 271.74 270.402 278.697 277.625 284.612L277.976 283.779L284.07 261.218L260.573 263.511ZM306.708 257.851L307.229 259.347L357.333 370.826L320.641 233.889L306.708 257.851ZM285.592 141.671C285.575 139.469 285.162 137.171 284.96 134.893C262.808 143.284 245.358 157.644 232.671 178.331L232.732 178.56C234.912 179.202 237.08 179.687 239.315 180.227C242.6 174.937 246.259 170.153 250.259 165.855L250.551 166.02L256.77 181.317L266.663 170.776L250.776 165.512C260.257 154.961 271.985 147.036 285.592 141.671ZM248.288 235.375L248.451 235.084C247.872 224.368 249.647 213.916 253.725 203.795L253.633 203.453L248.389 198.397C242.807 211.257 240.321 224.554 241.681 238.326L248.288 235.375ZM252.309 233.602L274.148 223.742L256.868 206.712C253.332 215.304 251.956 224.378 252.309 233.602ZM292.952 214.004C292.591 208.379 291.845 202.53 291.287 196.795L290.704 196.46L237.648 181.943L292.952 214.004ZM256.288 184.84C258.378 185.625 261.081 186.248 263.467 186.918C270.29 178.226 278.451 171.3 288.21 166.394L287.433 159.08C274.87 164.818 264.511 173.438 256.288 184.84ZM291.008 194.378L288.653 170.649C280.49 174.961 273.495 180.716 267.616 187.931L268.409 188.291L291.008 194.378ZM235.939 186.082C234.353 184.421 232.846 182.78 231.203 181.219L230.973 181.28C219.399 202.61 215.692 224.936 219.493 248.279L225.596 245.583C223.565 231.123 224.623 217.069 228.807 203.402L241.423 214.489L245.63 200.771L229.248 202.913L228.958 202.746C230.682 197.136 232.998 191.567 235.939 186.082ZM334.683 203.15L284.552 91.7198L321.244 228.659L335.176 204.693L334.683 203.15ZM460.504 194.857L323.571 231.548L347.548 245.52L349.04 245L460.504 194.857ZM356.317 320.827C356.335 323.028 356.703 325.3 356.916 327.492C367.133 324.102 376.322 318.612 384.505 312.21C394.076 304.619 402.394 295.4 409.235 284.167L409.173 283.939C406.984 283.543 404.794 282.699 402.605 282.305C399.318 287.56 395.66 292.385 391.617 296.655L391.335 296.521L385.112 281.232L375.225 291.767L391.141 297.027C381.663 307.578 369.93 315.502 356.317 320.827ZM393.598 227.174L393.424 227.425C394.011 238.178 392.267 248.618 388.163 258.75L388.255 259.094C390.033 260.705 391.69 262.465 393.376 264.181C399.194 251.424 401.488 238.014 400.202 224.219L393.598 227.174ZM389.612 228.935L367.772 238.79L384.901 255.746L385.048 255.829C388.553 247.243 389.922 238.172 389.612 228.935ZM348.932 248.543C349.29 254.166 350.038 260.016 350.594 265.752L351.175 266.087L404.265 280.556L348.932 248.543ZM385.704 277.641L378.446 275.579C371.634 284.313 363.432 291.25 353.701 296.105L354.458 303.344C358.51 301.846 362.387 299.377 366.023 296.931C373.595 291.798 380.056 285.241 385.704 277.641ZM350.886 268.046L353.266 291.89C361.394 287.587 368.392 281.827 374.301 274.605L373.462 274.218L350.886 268.046ZM405.981 276.458C407.523 278.086 409.078 279.756 410.68 281.331L410.909 281.27C422.518 259.926 426.188 237.606 422.388 214.268L416.282 216.968C418.315 231.419 417.262 245.476 413.115 259.136L400.488 248.012L396.285 261.767L412.625 259.598L412.915 259.761C411.237 265.404 408.89 270.976 405.981 276.458ZM410.519 195.911C412.722 195.891 414.986 195.49 417.182 195.308C413.797 185.099 408.304 175.905 401.905 167.727C394.313 158.154 385.081 149.796 373.858 142.994L373.629 143.056C373.238 145.245 372.392 147.434 371.996 149.625C377.256 152.913 382.075 156.57 386.338 160.576L386.17 160.865L370.914 167.081L381.452 176.969L386.718 161.09C397.269 170.564 405.156 182.307 410.519 195.911ZM316.865 158.631L317.107 158.772C327.873 158.217 338.313 159.955 348.433 164.029L348.74 163.947C350.433 162.184 352.2 160.528 353.834 158.703C340.972 153.115 327.677 150.628 313.902 151.987L316.865 158.631ZM318.628 162.617L328.488 184.455L345.434 167.329L345.517 167.182C336.926 163.638 327.828 162.319 318.628 162.617ZM355.431 201.596L355.741 201.064L370.218 147.85L338.224 203.261C343.849 202.9 349.696 202.151 355.431 201.596ZM367.334 166.526L365.268 173.784C374.006 180.594 380.929 188.755 385.795 198.53L393.038 197.77C391.532 193.682 389.071 189.844 386.618 186.168C381.488 178.633 374.932 172.177 367.334 166.526ZM357.814 201.324L381.581 198.964C377.269 190.8 371.515 183.8 364.26 177.937L363.899 178.729L357.814 201.324ZM366.147 146.243C367.773 144.668 369.45 143.153 371.009 141.508L370.948 141.279C349.62 129.707 327.294 126.005 303.946 129.806L306.65 135.907C321.105 133.874 335.162 134.931 348.828 139.113L337.705 151.74L351.457 155.945L349.279 139.565L349.447 139.277C355.094 140.991 360.664 143.302 366.147 146.243Z" fill="#111827"/>
<path d="M421.469 194.975L428.361 194.27C410.006 140.85 354.675 108.919 299.235 119.758L301.928 125.771L302.377 126.223C314.124 124.137 325.633 124.078 336.867 125.725C374.596 130.78 409.128 159.456 421.175 194.811L421.469 194.975Z" fill="#F3F4F6"/>
<path d="M371.009 141.508C369.45 143.153 367.773 144.668 366.147 146.243C360.664 143.302 355.094 140.991 349.447 139.277L349.279 139.565L351.457 155.945L337.705 151.74L348.828 139.113C335.162 134.931 321.105 133.874 306.65 135.907L303.946 129.806C327.294 126.005 349.62 129.707 370.948 141.279L371.009 141.508Z" fill="#F3F4F6"/>
<path d="M417.182 195.308C414.986 195.49 412.722 195.891 410.519 195.911C405.156 182.307 397.269 170.564 386.718 161.09L381.452 176.969L370.914 167.081L386.17 160.865L386.338 160.576C382.075 156.57 377.256 152.913 371.996 149.625C372.392 147.434 373.238 145.245 373.629 143.056L373.858 142.994C385.081 149.796 394.313 158.154 401.905 167.727C408.304 175.905 413.797 185.099 417.182 195.308Z" fill="#F3F4F6"/>
<path d="M355.741 201.064L355.431 201.596C349.696 202.151 343.849 202.9 338.224 203.261L370.218 147.85L355.741 201.064Z" fill="#F3F4F6"/>
<path d="M317.107 158.772L316.865 158.631L313.902 151.987C327.677 150.628 340.972 153.115 353.834 158.703C352.2 160.528 350.433 162.184 348.74 163.947L348.433 164.029C338.313 159.955 327.873 158.217 317.107 158.772Z" fill="#F3F4F6"/>
<path d="M328.488 184.455L318.628 162.617C327.828 162.319 336.926 163.638 345.517 167.182L345.434 167.329L328.488 184.455Z" fill="#F3F4F6"/>
<path d="M381.581 198.964L357.814 201.324L363.899 178.729L364.26 177.937C371.515 183.8 377.269 190.8 381.581 198.964Z" fill="#F3F4F6"/>
<path d="M365.268 173.784L367.334 166.526C374.932 172.177 381.488 178.633 386.618 186.168C389.071 189.844 391.532 193.682 393.038 197.77L385.795 198.53C380.929 188.755 374.006 180.594 365.268 173.784Z" fill="#F3F4F6"/>
<path d="M284.552 91.7198L334.683 203.15L335.176 204.693L321.244 228.659L284.552 91.7198Z" fill="#F3F4F6"/>
<path d="M323.571 231.548L460.504 194.857L349.04 245L347.548 245.52L323.571 231.548Z" fill="#F3F4F6"/>
<path d="M356.916 327.492C356.703 325.3 356.335 323.028 356.317 320.827C369.93 315.502 381.663 307.578 391.141 297.027L375.225 291.767L385.112 281.232L391.335 296.521L391.617 296.655C395.66 292.385 399.318 287.56 402.605 282.305C404.794 282.699 406.984 283.543 409.173 283.939L409.235 284.167C402.394 295.4 394.076 304.619 384.505 312.21C376.322 318.612 367.133 324.102 356.916 327.492Z" fill="#F3F4F6"/>
<path d="M378.446 275.579L385.704 277.641C380.056 285.241 373.595 291.798 366.023 296.931C362.387 299.377 358.51 301.846 354.458 303.344L353.701 296.105C363.432 291.25 371.634 284.313 378.446 275.579Z" fill="#F3F4F6"/>
<path d="M353.266 291.89L350.886 268.046L373.462 274.218L374.301 274.605C368.392 281.827 361.394 287.587 353.266 291.89Z" fill="#F3F4F6"/>
<path d="M350.594 265.752C350.038 260.016 349.29 254.166 348.932 248.543L404.265 280.556L351.175 266.087L350.594 265.752Z" fill="#F3F4F6"/>
<path d="M367.772 238.79L389.612 228.935C389.922 238.172 388.553 247.243 385.048 255.829L384.901 255.746L367.772 238.79Z" fill="#F3F4F6"/>
<path d="M393.424 227.425L393.598 227.174L400.202 224.219C401.488 238.014 399.194 251.424 393.376 264.181C391.69 262.465 390.033 260.705 388.255 259.094L388.163 258.75C392.267 248.618 394.011 238.178 393.424 227.425Z" fill="#F3F4F6"/>
<path d="M410.68 281.331C409.078 279.756 407.523 278.086 405.981 276.458C408.89 270.976 411.237 265.404 412.915 259.761L412.625 259.598L396.285 261.767L400.488 248.012L413.115 259.136C417.262 245.476 418.315 231.419 416.282 216.968L422.388 214.268C426.188 237.606 422.518 259.926 410.909 281.27L410.68 281.331Z" fill="#F3F4F6"/>
<path d="M307.229 259.347L306.708 257.851L320.641 233.889L357.333 370.826L307.229 259.347Z" fill="#F3F4F6"/>
<path d="M286.358 260.935C292.097 260.378 298.02 259.608 303.646 259.244L271.636 314.58L286.358 260.935Z" fill="#F3F4F6"/>
<path d="M313.436 278.081L323.292 299.921C314.056 300.232 304.983 298.861 296.4 295.355L296.483 295.21L313.436 278.081Z" fill="#F3F4F6"/>
<path d="M260.34 263.573L260.573 263.511L284.07 261.218L277.976 283.779L277.625 284.612C270.402 278.697 264.646 271.74 260.34 263.573Z" fill="#F3F4F6"/>
<path d="M276.615 288.761L274.547 296.021C263.283 287.677 254.482 277.405 248.773 264.795C251.226 264.34 253.63 264.473 256.089 264.02C260.978 273.744 267.916 281.937 276.615 288.761Z" fill="#F3F4F6"/>
<path d="M224.582 267.27C226.852 267.031 229.163 266.655 231.364 266.638C236.727 280.242 244.655 291.974 255.163 301.46L260.459 285.533L271.001 295.458L255.703 301.645L255.534 301.931C259.844 305.969 264.633 309.629 269.923 312.915C269.37 315.104 268.895 317.318 268.254 319.494L268.024 319.556C247.334 306.866 232.96 289.382 224.582 267.27Z" fill="#F3F4F6"/>
<path d="M270.896 320.99C272.598 319.552 274.034 317.736 275.773 316.289C281.253 319.196 286.825 321.547 292.428 323.233L292.607 322.976L290.46 306.594L304.183 310.803L293.088 323.422C306.763 327.604 320.818 328.661 335.263 326.591L337.961 332.695C314.591 336.54 292.299 332.829 270.957 321.218L270.896 320.99Z" fill="#F9FAFB"/>
<path d="M293.334 298.385C303.526 302.562 313.972 304.34 324.761 303.737L325.056 303.903L328.018 310.548C314.206 311.921 300.948 309.424 288.076 303.8C289.731 301.886 291.566 300.208 293.334 298.385Z" fill="#F3F4F6"/>
<path d="M220.706 267.735L220.454 267.56L213.557 268.26C231.916 321.67 287.24 353.593 342.674 342.757L339.996 336.766L339.498 336.289C327.4 338.425 315.571 338.528 304.028 336.638C266.608 331.211 232.643 302.836 220.706 267.735Z" fill="#F3F4F6"/>
<path d="M284.67 130.761L283.957 123.856C230.543 142.217 198.616 197.546 209.459 252.985L215.462 250.301L215.903 249.814C213.815 237.743 213.694 225.883 215.594 214.339C221.013 176.918 249.394 142.95 284.495 131.015L284.67 130.761Z" fill="#F3F4F6"/>
<path d="M284.96 134.893C285.162 137.171 285.575 139.469 285.592 141.671C271.985 147.036 260.257 154.961 250.776 165.512L266.663 170.776L256.77 181.317L250.551 166.02L250.259 165.855C246.259 170.153 242.6 174.937 239.315 180.227C237.08 179.687 234.912 179.202 232.732 178.56L232.671 178.331C245.358 157.644 262.808 143.284 284.96 134.893Z" fill="#F3F4F6"/>
<path d="M231.203 181.219C232.846 182.78 234.353 184.421 235.939 186.082C232.998 191.567 230.682 197.136 228.958 202.746L229.248 202.913L245.63 200.771L241.423 214.489L228.807 203.402C224.623 217.069 223.565 231.123 225.596 245.583L219.493 248.279C215.692 224.936 219.399 202.61 230.973 181.28L231.203 181.219Z" fill="#F3F4F6"/>
<path d="M248.451 235.084L248.288 235.375L241.681 238.326C240.321 224.554 242.807 211.257 248.389 198.397L253.633 203.453L253.725 203.795C249.647 213.916 247.872 224.368 248.451 235.084Z" fill="#F3F4F6"/>
<path d="M263.467 186.918C261.081 186.248 258.378 185.625 256.288 184.84C264.511 173.438 274.87 164.818 287.433 159.08L288.21 166.394C278.451 171.3 270.29 178.226 263.467 186.918Z" fill="#F3F4F6"/>
<path d="M288.653 170.649L291.008 194.378L268.409 188.291L267.616 187.931C273.495 180.716 280.49 174.961 288.653 170.649Z" fill="#F3F4F6"/>
<path d="M291.287 196.795C291.845 202.53 292.591 208.379 292.952 214.004L237.648 181.943L290.704 196.46L291.287 196.795Z" fill="#F3F4F6"/>
<path d="M274.148 223.742L252.309 233.602C251.956 224.378 253.332 215.304 256.868 206.712L274.148 223.742Z" fill="#F3F4F6"/>
<path d="M181.359 267.654L292.843 217.547L294.333 217.028L318.34 230.95L181.359 267.654Z" fill="#F3F4F6"/>
<path d="M357.255 331.774L358.078 339.884L357.954 338.66C411.366 320.303 443.293 264.979 432.457 209.544L434.565 208.6L434.564 208.599L426.422 212.246L425.977 212.733C428.101 224.468 428.15 235.938 426.503 247.169C421.409 284.911 392.736 319.445 357.38 331.497L357.255 331.774Z" fill="#F3F4F6"/>
</svg>
