<svg width="1113" height="89" viewBox="0 0 1113 89" fill="none" xmlns="http://www.w3.org/2000/svg">
<path d="M74.3637 32.2354C114.663 40.6225 153.359 51.3674 197.854 54.5415C230.242 56.8516 264.862 55.066 294.958 60.5026C326.003 66.1111 347.275 78.578 378.043 84.4398C416.84 91.8312 463.448 87.2547 500.945 78.6519C538.442 70.0496 570.287 57.764 606.69 48.3848C643.092 39.0067 687.44 32.531 728.526 37.39C766.991 41.9392 799.388 55.9724 839.362 54.862C865.253 54.1427 887.411 47.0907 912.086 43.7266C940.439 39.8609 971.048 40.9845 1000.85 41.1652C1030.65 41.3459 1062.41 40.2652 1086.43 32.909C1110.45 25.5522 1121.8 9.94126 1102.56 0.550781C810.767 17.2493 516.067 24.9019 221.732 23.4538C150.12 23.1014 -5.62319 19.1401 0.488756 23.9707C25.3071 43.5859 48.5816 26.8699 74.3637 32.2354Z" fill="#3B82F6"/>
</svg>
